<?xml version="1.0" encoding="UTF-8"?>
<!DOCTYPE svg PUBLIC "-//W3C//DTD SVG 1.1//EN" "http://www.w3.org/Graphics/SVG/1.1/DTD/svg11.dtd">
<svg xmlns="http://www.w3.org/2000/svg" xmlns:xlink="http://www.w3.org/1999/xlink" version="1.1" width="601px" height="311px" viewBox="-0.5 -0.5 601 311" style="background-color: rgb(255, 255, 255);"><defs><style type="text/css">@import url(https://fonts.googleapis.com/css?family=Source+Sans+Pro);&#xa;</style></defs><g><rect x="20" y="130" width="257.05" height="130" rx="19.5" ry="19.5" fill="#dae8fc" stroke="#6c8ebf" pointer-events="none"/><g fill="#000000" font-family="DejaVu Sans Condensed" font-weight="bold" pointer-events="none" text-anchor="middle" font-size="12px"><text x="148.02" y="124.5">Erfassungsdatenbanken</text></g><rect x="20" y="20" width="560" height="50" rx="7.5" ry="7.5" fill="#dae8fc" stroke="#6c8ebf" pointer-events="none"/><g fill="#000000" font-family="DejaVu Sans Condensed" font-weight="bold" pointer-events="none" text-anchor="middle" font-size="12px"><text x="299.5" y="49.5">Taxonomische Referenzdatenbanken</text></g><path d="M 277 195 L 300 195 L 300 76.37" fill="none" stroke="#000000" stroke-miterlimit="10" pointer-events="none"/><path d="M 300 71.12 L 303.5 78.12 L 300 76.37 L 296.5 78.12 Z" fill="#000000" stroke="#000000" stroke-miterlimit="10" pointer-events="none"/><rect x="38.36" y="150" width="220.33" height="40" rx="6" ry="6" fill="#b0e3e6" stroke="#0e8088" pointer-events="none"/><g fill="#000000" font-family="DejaVu Sans Condensed" pointer-events="none" text-anchor="middle" font-size="12px"><text x="148.02" y="174.5">Floristische Datenbanken</text></g><rect x="38.36" y="200" width="220.33" height="40" rx="6" ry="6" fill="#b0e3e6" stroke="#0e8088" pointer-events="none"/><g fill="#000000" font-family="DejaVu Sans Condensed" pointer-events="none" text-anchor="middle" font-size="12px"><text x="148.02" y="224.5">Vegetationsdatenbanken</text></g><path d="M 322.95 195 L 300 195 L 300 76.37" fill="none" stroke="#000000" stroke-miterlimit="10" pointer-events="none"/><path d="M 300 71.12 L 303.5 78.12 L 300 76.37 L 296.5 78.12 Z" fill="#000000" stroke="#000000" stroke-miterlimit="10" pointer-events="none"/><rect x="322.95" y="100" width="257.05" height="190" rx="28.5" ry="28.5" fill="#dae8fc" stroke="#6c8ebf" pointer-events="none"/><g fill="#000000" font-family="DejaVu Sans Condensed" font-weight="bold" pointer-events="none" text-anchor="middle" font-size="12px"><text x="450.98" y="94.5">Taxonspezifische Datenbanken</text></g><rect x="341.31" y="120" width="220.33" height="30" rx="4.5" ry="4.5" fill="#b1ddf0" stroke="#10739e" pointer-events="none"/><g fill="#000000" font-family="DejaVu Sans Condensed" pointer-events="none" text-anchor="middle" font-size="12px"><text x="450.98" y="139.5">Morphologische Eigenschaften</text></g><rect x="341.31" y="160" width="220.33" height="30" rx="4.5" ry="4.5" fill="#b1ddf0" stroke="#10739e" pointer-events="none"/><g fill="#000000" font-family="DejaVu Sans Condensed" pointer-events="none" text-anchor="middle" font-size="12px"><text x="450.98" y="179.5">Umweltmerkmale</text></g><rect x="341.31" y="200" width="220.33" height="30" rx="4.5" ry="4.5" fill="#b1ddf0" stroke="#10739e" pointer-events="none"/><g fill="#000000" font-family="DejaVu Sans Condensed" pointer-events="none" text-anchor="middle" font-size="12px"><text x="450.98" y="219.5">Ökologische Zeigerwerte</text></g><rect x="341.31" y="240" width="220.33" height="30" rx="4.5" ry="4.5" fill="#b1ddf0" stroke="#10739e" pointer-events="none"/><g fill="#000000" font-family="DejaVu Sans Condensed" font-weight="bold" pointer-events="none" text-anchor="middle" font-size="12px"><text x="450.98" y="259.5">...</text></g></g></svg>