<?xml version="1.0" encoding="UTF-8"?>
<!DOCTYPE svg PUBLIC "-//W3C//DTD SVG 1.1//EN" "http://www.w3.org/Graphics/SVG/1.1/DTD/svg11.dtd">
<svg xmlns="http://www.w3.org/2000/svg" xmlns:xlink="http://www.w3.org/1999/xlink" version="1.1" width="601px" height="361px" viewBox="-0.5 -0.5 601 361" style="background-color: rgb(255, 255, 255);"><defs><style type="text/css">@import url(https://fonts.googleapis.com/css?family=Source+Sans+Pro);&#xa;@import url(https://fonts.googleapis.com/css?family=Noto+Sans+Cond);&#xa;</style></defs><g><path d="M 300 110 L 300 90 L 300 66.37" fill="none" stroke="#000000" stroke-miterlimit="10" pointer-events="stroke"/><path d="M 300 61.12 L 303.5 68.12 L 300 66.37 L 296.5 68.12 Z" fill="#000000" stroke="#000000" stroke-miterlimit="10" pointer-events="all"/><g fill="#000000" font-family="DejaVu Sans Condensed" text-anchor="middle" font-size="11px"><rect fill="#ffffff" stroke="none" x="273" y="79" width="55" height="14" stroke-width="0"/><text x="299.5" y="89">Metadaten</text></g><rect x="20" y="110" width="560" height="230" rx="34.5" ry="34.5" fill="#dae8fc" stroke="#6c8ebf" pointer-events="all"/><g fill="#000000" font-family="DejaVu Sans Condensed" font-weight="bold" text-anchor="middle" font-size="12px"><text x="299.5" y="127.5">Datenbanken einer Domäne</text></g><path d="M 80 270 L 79.84 256.37" fill="none" stroke="#000000" stroke-miterlimit="10" pointer-events="stroke"/><path d="M 79.77 251.12 L 83.36 258.08 L 79.84 256.37 L 76.36 258.16 Z" fill="#000000" stroke="#000000" stroke-miterlimit="10" pointer-events="all"/><rect x="40" y="270" width="80" height="50" rx="7.5" ry="7.5" fill="#c5c5f0" stroke="#000000" pointer-events="all"/><g fill="#000000" font-family="DejaVu Sans Condensed" text-anchor="middle" font-size="12px"><text x="79.5" y="292.5">atomare</text><text x="79.5" y="306.5">Datenbank</text></g><path d="M 180 270 L 180 250 L 180 270 L 180 256.37" fill="none" stroke="#000000" stroke-miterlimit="10" pointer-events="stroke"/><path d="M 180 251.12 L 183.5 258.12 L 180 256.37 L 176.5 258.12 Z" fill="#000000" stroke="#000000" stroke-miterlimit="10" pointer-events="all"/><rect x="140" y="270" width="80" height="50" rx="7.5" ry="7.5" fill="#c5c5f0" stroke="#000000" pointer-events="all"/><g fill="#000000" font-family="DejaVu Sans Condensed" text-anchor="middle" font-size="12px"><text x="179.5" y="292.5">atomare</text><text x="179.5" y="306.5">Datenbank</text></g><path d="M 280 270 L 280 260 L 280 256.37" fill="none" stroke="#000000" stroke-miterlimit="10" pointer-events="stroke"/><path d="M 280 251.12 L 283.5 258.12 L 280 256.37 L 276.5 258.12 Z" fill="#000000" stroke="#000000" stroke-miterlimit="10" pointer-events="all"/><rect x="240" y="270" width="80" height="50" rx="7.5" ry="7.5" fill="#c5c5f0" stroke="#000000" pointer-events="all"/><g fill="#000000" font-family="DejaVu Sans Condensed" text-anchor="middle" font-size="12px"><text x="279.5" y="292.5">atomare</text><text x="279.5" y="306.5">Datenbank</text></g><path d="M 180 210 L 180 196.37" fill="none" stroke="#000000" stroke-miterlimit="10" pointer-events="stroke"/><path d="M 180 191.12 L 183.5 198.12 L 180 196.37 L 176.5 198.12 Z" fill="#000000" stroke="#000000" stroke-miterlimit="10" pointer-events="all"/><rect x="40" y="210" width="280" height="40" rx="6" ry="6" fill="#bec9f0" stroke="#000000" pointer-events="all"/><g fill="#000000" font-family="DejaVu Sans Condensed" text-anchor="middle" font-size="12px"><text x="179.5" y="234.5">Zentraldatenbank</text></g><rect x="20" y="20" width="560" height="40" rx="6" ry="6" fill="#bac8d3" stroke="#23445d" pointer-events="all"/><g fill="#000000" font-family="DejaVu Sans Condensed" font-weight="bold" text-anchor="middle" font-size="12px"><text x="299.5" y="44.5">Metadatenbank der Domäne</text></g><rect x="40" y="150" width="520" height="40" rx="6" ry="6" fill="#b1ddf0" stroke="#000000" pointer-events="all"/><g fill="#000000" font-family="DejaVu Sans Condensed" text-anchor="middle" font-size="12px"><text x="299.5" y="167.5">(höher geordnete</text><text x="299.5" y="181.5">Zentraldatenbank)</text></g><path d="M 385 210 L 385 196.37" fill="none" stroke="#000000" stroke-miterlimit="10" pointer-events="stroke"/><path d="M 385 191.12 L 388.5 198.12 L 385 196.37 L 381.5 198.12 Z" fill="#000000" stroke="#000000" stroke-miterlimit="10" pointer-events="all"/><rect x="330" y="210" width="110" height="40" rx="6" ry="6" fill="#9ef0f0" stroke="#000000" pointer-events="all"/><g fill="#000000" font-family="DejaVu Sans Condensed" text-anchor="middle" font-size="12px"><text x="384.5" y="234.5">Zentraldatenbank</text></g><path d="M 505 210 L 504.92 196.37" fill="none" stroke="#000000" stroke-miterlimit="10" pointer-events="stroke"/><path d="M 504.89 191.12 L 508.43 198.1 L 504.92 196.37 L 501.43 198.14 Z" fill="#000000" stroke="#000000" stroke-miterlimit="10" pointer-events="all"/><rect x="450" y="210" width="110" height="40" rx="6" ry="6" fill="#95c2f0" stroke="#000000" pointer-events="all"/><g fill="#000000" font-family="DejaVu Sans Condensed" text-anchor="middle" font-size="12px"><text x="504.5" y="234.5">Zentraldatenbank</text></g><path d="M 345 270 L 345 260 L 345 256.37" fill="none" stroke="#000000" stroke-miterlimit="10" pointer-events="stroke"/><path d="M 345 251.12 L 348.5 258.12 L 345 256.37 L 341.5 258.12 Z" fill="#000000" stroke="#000000" stroke-miterlimit="10" pointer-events="all"/><rect x="330" y="270" width="30" height="50" rx="4.5" ry="4.5" fill="#a3f0dc" stroke="#000000" pointer-events="all"/><g fill="#000000" font-family="DejaVu Sans Condensed" text-anchor="middle" font-size="12px"><text x="344.5" y="299.5">...</text></g><path d="M 385 270 L 385 250 L 385 270 L 385 256.37" fill="none" stroke="#000000" stroke-miterlimit="10" pointer-events="stroke"/><path d="M 385 251.12 L 388.5 258.12 L 385 256.37 L 381.5 258.12 Z" fill="#000000" stroke="#000000" stroke-miterlimit="10" pointer-events="all"/><rect x="370" y="270" width="30" height="50" rx="4.5" ry="4.5" fill="#a3f0dc" stroke="#000000" pointer-events="all"/><g fill="#000000" font-family="DejaVu Sans Condensed" text-anchor="middle" font-size="12px"><text x="384.5" y="299.5">...</text></g><path d="M 425 270 L 425 256.37" fill="none" stroke="#000000" stroke-miterlimit="10" pointer-events="stroke"/><path d="M 425 251.12 L 428.5 258.12 L 425 256.37 L 421.5 258.12 Z" fill="#000000" stroke="#000000" stroke-miterlimit="10" pointer-events="all"/><rect x="410" y="270" width="30" height="50" rx="4.5" ry="4.5" fill="#a3f0dc" stroke="#000000" pointer-events="all"/><g fill="#000000" font-family="DejaVu Sans Condensed" text-anchor="middle" font-size="12px"><text x="424.5" y="299.5">...</text></g><path d="M 465 270 L 465 256.37" fill="none" stroke="#000000" stroke-miterlimit="10" pointer-events="stroke"/><path d="M 465 251.12 L 468.5 258.12 L 465 256.37 L 461.5 258.12 Z" fill="#000000" stroke="#000000" stroke-miterlimit="10" pointer-events="all"/><rect x="450" y="270" width="30" height="50" rx="4.5" ry="4.5" fill="#7fa5f0" stroke="#000000" pointer-events="all"/><g fill="#000000" font-family="DejaVu Sans Condensed" text-anchor="middle" font-size="12px"><text x="464.5" y="299.5">...</text></g><path d="M 505 270 L 505 250 L 505 270 L 505 256.37" fill="none" stroke="#000000" stroke-miterlimit="10" pointer-events="stroke"/><path d="M 505 251.12 L 508.5 258.12 L 505 256.37 L 501.5 258.12 Z" fill="#000000" stroke="#000000" stroke-miterlimit="10" pointer-events="all"/><rect x="490" y="270" width="30" height="50" rx="4.5" ry="4.5" fill="#7fa5f0" stroke="#000000" pointer-events="all"/><g fill="#000000" font-family="DejaVu Sans Condensed" text-anchor="middle" font-size="12px"><text x="504.5" y="299.5">...</text></g><path d="M 545 270 L 545 260 L 545 256.37" fill="none" stroke="#000000" stroke-miterlimit="10" pointer-events="stroke"/><path d="M 545 251.12 L 548.5 258.12 L 545 256.37 L 541.5 258.12 Z" fill="#000000" stroke="#000000" stroke-miterlimit="10" pointer-events="all"/><rect x="530" y="270" width="30" height="50" rx="4.5" ry="4.5" fill="#7fa5f0" stroke="#000000" pointer-events="all"/><g fill="#000000" font-family="DejaVu Sans Condensed" text-anchor="middle" font-size="12px"><text x="544.5" y="299.5">...</text></g></g></svg>